<mxfile host="app.diagrams.net" modified="2022-11-28T17:08:58.067Z" agent="5.0 (Windows NT 10.0; Win64; x64) AppleWebKit/537.36 (KHTML, like Gecko) Chrome/107.0.0.0 Safari/537.36" etag="kXFH-vFQsDEcskeRj85m" version="20.4.2" type="github">
  <diagram id="dJ-ZJHIauLftcZxrPgYS" name="Page-1">
    <mxGraphModel dx="1185" dy="628" grid="0" gridSize="10" guides="1" tooltips="1" connect="1" arrows="1" fold="1" page="0" pageScale="1" pageWidth="827" pageHeight="1169" math="0" shadow="0">
      <root>
        <mxCell id="0" />
        <mxCell id="1" parent="0" />
        <mxCell id="zJoKeCBBQLFJ8sPPTKAs-1" value="HLMA" style="rounded=1;whiteSpace=wrap;html=1;" vertex="1" parent="1">
          <mxGeometry x="360" y="100" width="120" height="30" as="geometry" />
        </mxCell>
        <mxCell id="zJoKeCBBQLFJ8sPPTKAs-17" style="edgeStyle=orthogonalEdgeStyle;rounded=0;orthogonalLoop=1;jettySize=auto;html=1;entryX=0;entryY=0.5;entryDx=0;entryDy=0;endArrow=none;endFill=0;" edge="1" parent="1" source="zJoKeCBBQLFJ8sPPTKAs-2" target="zJoKeCBBQLFJ8sPPTKAs-16">
          <mxGeometry relative="1" as="geometry" />
        </mxCell>
        <mxCell id="zJoKeCBBQLFJ8sPPTKAs-2" value="New" style="rounded=1;whiteSpace=wrap;html=1;" vertex="1" parent="1">
          <mxGeometry y="220" width="120" height="30" as="geometry" />
        </mxCell>
        <mxCell id="zJoKeCBBQLFJ8sPPTKAs-11" value="" style="edgeStyle=orthogonalEdgeStyle;rounded=0;orthogonalLoop=1;jettySize=auto;html=1;endArrow=none;endFill=0;entryX=0;entryY=0.5;entryDx=0;entryDy=0;" edge="1" parent="1" source="zJoKeCBBQLFJ8sPPTKAs-4" target="zJoKeCBBQLFJ8sPPTKAs-10">
          <mxGeometry relative="1" as="geometry" />
        </mxCell>
        <mxCell id="zJoKeCBBQLFJ8sPPTKAs-12" style="edgeStyle=orthogonalEdgeStyle;rounded=0;orthogonalLoop=1;jettySize=auto;html=1;exitX=0.5;exitY=0;exitDx=0;exitDy=0;entryX=0.5;entryY=1;entryDx=0;entryDy=0;endArrow=none;endFill=0;" edge="1" parent="1" source="zJoKeCBBQLFJ8sPPTKAs-4" target="zJoKeCBBQLFJ8sPPTKAs-1">
          <mxGeometry relative="1" as="geometry">
            <mxPoint x="310" y="215" as="sourcePoint" />
            <mxPoint x="414" y="125" as="targetPoint" />
            <Array as="points">
              <mxPoint x="274" y="195" />
              <mxPoint x="420" y="195" />
            </Array>
          </mxGeometry>
        </mxCell>
        <mxCell id="zJoKeCBBQLFJ8sPPTKAs-4" value="Edit" style="rounded=1;whiteSpace=wrap;html=1;" vertex="1" parent="1">
          <mxGeometry x="214" y="220" width="120" height="30" as="geometry" />
        </mxCell>
        <mxCell id="zJoKeCBBQLFJ8sPPTKAs-5" value="" style="edgeStyle=orthogonalEdgeStyle;rounded=0;orthogonalLoop=1;jettySize=auto;html=1;endArrow=none;endFill=0;entryX=0.5;entryY=1;entryDx=0;entryDy=0;" edge="1" parent="1" source="zJoKeCBBQLFJ8sPPTKAs-2" target="zJoKeCBBQLFJ8sPPTKAs-1">
          <mxGeometry relative="1" as="geometry">
            <mxPoint x="210" y="195" as="sourcePoint" />
            <mxPoint x="410" y="195" as="targetPoint" />
            <Array as="points">
              <mxPoint x="60" y="195" />
              <mxPoint x="420" y="195" />
            </Array>
          </mxGeometry>
        </mxCell>
        <mxCell id="zJoKeCBBQLFJ8sPPTKAs-8" style="edgeStyle=orthogonalEdgeStyle;rounded=0;orthogonalLoop=1;jettySize=auto;html=1;entryX=0.5;entryY=1;entryDx=0;entryDy=0;endArrow=none;endFill=0;exitX=0.5;exitY=0;exitDx=0;exitDy=0;" edge="1" parent="1" source="zJoKeCBBQLFJ8sPPTKAs-6" target="zJoKeCBBQLFJ8sPPTKAs-1">
          <mxGeometry relative="1" as="geometry">
            <mxPoint x="670.0285714285715" y="215" as="sourcePoint" />
            <mxPoint x="414" y="125" as="targetPoint" />
            <Array as="points">
              <mxPoint x="490" y="195" />
              <mxPoint x="420" y="195" />
            </Array>
          </mxGeometry>
        </mxCell>
        <mxCell id="zJoKeCBBQLFJ8sPPTKAs-15" style="edgeStyle=orthogonalEdgeStyle;rounded=0;orthogonalLoop=1;jettySize=auto;html=1;entryX=0;entryY=0.5;entryDx=0;entryDy=0;endArrow=none;endFill=0;" edge="1" parent="1" source="zJoKeCBBQLFJ8sPPTKAs-6" target="zJoKeCBBQLFJ8sPPTKAs-14">
          <mxGeometry relative="1" as="geometry" />
        </mxCell>
        <mxCell id="zJoKeCBBQLFJ8sPPTKAs-6" value="Remove" style="rounded=1;whiteSpace=wrap;html=1;" vertex="1" parent="1">
          <mxGeometry x="430" y="220" width="120" height="30" as="geometry" />
        </mxCell>
        <mxCell id="zJoKeCBBQLFJ8sPPTKAs-13" style="edgeStyle=orthogonalEdgeStyle;rounded=0;orthogonalLoop=1;jettySize=auto;html=1;entryX=0.5;entryY=1;entryDx=0;entryDy=0;endArrow=none;endFill=0;exitX=0.5;exitY=0;exitDx=0;exitDy=0;" edge="1" parent="1" source="zJoKeCBBQLFJ8sPPTKAs-9" target="zJoKeCBBQLFJ8sPPTKAs-1">
          <mxGeometry relative="1" as="geometry">
            <mxPoint x="669.9999999999998" y="225" as="sourcePoint" />
            <mxPoint x="414" y="135" as="targetPoint" />
            <Array as="points">
              <mxPoint x="710" y="195" />
              <mxPoint x="420" y="195" />
            </Array>
          </mxGeometry>
        </mxCell>
        <mxCell id="zJoKeCBBQLFJ8sPPTKAs-19" style="edgeStyle=orthogonalEdgeStyle;rounded=0;orthogonalLoop=1;jettySize=auto;html=1;entryX=0;entryY=0.5;entryDx=0;entryDy=0;endArrow=none;endFill=0;" edge="1" parent="1" source="zJoKeCBBQLFJ8sPPTKAs-9" target="zJoKeCBBQLFJ8sPPTKAs-18">
          <mxGeometry relative="1" as="geometry" />
        </mxCell>
        <mxCell id="zJoKeCBBQLFJ8sPPTKAs-9" value="View" style="rounded=1;whiteSpace=wrap;html=1;" vertex="1" parent="1">
          <mxGeometry x="650" y="220" width="120" height="30" as="geometry" />
        </mxCell>
        <mxCell id="zJoKeCBBQLFJ8sPPTKAs-10" value="user details" style="rounded=1;whiteSpace=wrap;html=1;" vertex="1" parent="1">
          <mxGeometry x="294" y="280" width="120" height="30" as="geometry" />
        </mxCell>
        <mxCell id="zJoKeCBBQLFJ8sPPTKAs-14" value="remove user" style="rounded=1;whiteSpace=wrap;html=1;" vertex="1" parent="1">
          <mxGeometry x="510" y="280" width="120" height="30" as="geometry" />
        </mxCell>
        <mxCell id="zJoKeCBBQLFJ8sPPTKAs-16" value="register user" style="rounded=1;whiteSpace=wrap;html=1;" vertex="1" parent="1">
          <mxGeometry x="80" y="280" width="120" height="30" as="geometry" />
        </mxCell>
        <mxCell id="zJoKeCBBQLFJ8sPPTKAs-18" value="user details" style="rounded=1;whiteSpace=wrap;html=1;" vertex="1" parent="1">
          <mxGeometry x="730" y="280" width="120" height="30" as="geometry" />
        </mxCell>
        <mxCell id="zJoKeCBBQLFJ8sPPTKAs-27" style="edgeStyle=orthogonalEdgeStyle;rounded=0;orthogonalLoop=1;jettySize=auto;html=1;entryX=0.25;entryY=1;entryDx=0;entryDy=0;endArrow=none;endFill=0;exitX=0.003;exitY=0.058;exitDx=0;exitDy=0;exitPerimeter=0;" edge="1" parent="1" source="zJoKeCBBQLFJ8sPPTKAs-22" target="zJoKeCBBQLFJ8sPPTKAs-16">
          <mxGeometry relative="1" as="geometry">
            <mxPoint x="110" y="330" as="sourcePoint" />
          </mxGeometry>
        </mxCell>
        <mxCell id="zJoKeCBBQLFJ8sPPTKAs-22" value="&lt;div style=&quot;text-align: left;&quot;&gt;enter details&lt;/div&gt;&lt;div style=&quot;text-align: left;&quot;&gt;apply discount (optional)&lt;/div&gt;&lt;div style=&quot;text-align: left;&quot;&gt;proceed to payment&lt;/div&gt;" style="text;html=1;strokeColor=none;fillColor=none;align=center;verticalAlign=middle;whiteSpace=wrap;rounded=0;" vertex="1" parent="1">
          <mxGeometry x="120" y="320" width="140" height="30" as="geometry" />
        </mxCell>
        <mxCell id="zJoKeCBBQLFJ8sPPTKAs-24" style="edgeStyle=orthogonalEdgeStyle;rounded=0;orthogonalLoop=1;jettySize=auto;html=1;entryX=0.5;entryY=1;entryDx=0;entryDy=0;endArrow=none;endFill=0;" edge="1" parent="1" source="zJoKeCBBQLFJ8sPPTKAs-23" target="zJoKeCBBQLFJ8sPPTKAs-2">
          <mxGeometry relative="1" as="geometry">
            <Array as="points">
              <mxPoint x="60" y="395" />
            </Array>
          </mxGeometry>
        </mxCell>
        <mxCell id="zJoKeCBBQLFJ8sPPTKAs-23" value="activities" style="rounded=1;whiteSpace=wrap;html=1;" vertex="1" parent="1">
          <mxGeometry x="80" y="380" width="120" height="30" as="geometry" />
        </mxCell>
        <mxCell id="zJoKeCBBQLFJ8sPPTKAs-36" style="edgeStyle=orthogonalEdgeStyle;rounded=0;orthogonalLoop=1;jettySize=auto;html=1;entryX=0.5;entryY=1;entryDx=0;entryDy=0;endArrow=none;endFill=0;exitX=0;exitY=0.5;exitDx=0;exitDy=0;" edge="1" parent="1" source="zJoKeCBBQLFJ8sPPTKAs-26" target="zJoKeCBBQLFJ8sPPTKAs-2">
          <mxGeometry relative="1" as="geometry">
            <Array as="points">
              <mxPoint x="60" y="495" />
            </Array>
          </mxGeometry>
        </mxCell>
        <mxCell id="zJoKeCBBQLFJ8sPPTKAs-26" value="personal goals" style="rounded=1;whiteSpace=wrap;html=1;" vertex="1" parent="1">
          <mxGeometry x="80" y="480" width="120" height="30" as="geometry" />
        </mxCell>
        <mxCell id="zJoKeCBBQLFJ8sPPTKAs-28" style="edgeStyle=orthogonalEdgeStyle;rounded=0;orthogonalLoop=1;jettySize=auto;html=1;entryX=0.25;entryY=1;entryDx=0;entryDy=0;endArrow=none;endFill=0;exitX=0;exitY=0.5;exitDx=0;exitDy=0;" edge="1" parent="1" source="zJoKeCBBQLFJ8sPPTKAs-22" target="zJoKeCBBQLFJ8sPPTKAs-16">
          <mxGeometry relative="1" as="geometry">
            <mxPoint x="120.00000000000001" y="340.86999999999995" as="sourcePoint" />
            <mxPoint x="109.58" y="329.13" as="targetPoint" />
          </mxGeometry>
        </mxCell>
        <mxCell id="zJoKeCBBQLFJ8sPPTKAs-31" style="edgeStyle=orthogonalEdgeStyle;rounded=0;orthogonalLoop=1;jettySize=auto;html=1;entryX=0.25;entryY=1;entryDx=0;entryDy=0;endArrow=none;endFill=0;" edge="1" parent="1" target="zJoKeCBBQLFJ8sPPTKAs-16">
          <mxGeometry relative="1" as="geometry">
            <mxPoint x="120" y="350" as="sourcePoint" />
            <mxPoint x="110" y="320" as="targetPoint" />
            <Array as="points">
              <mxPoint x="110" y="350" />
            </Array>
          </mxGeometry>
        </mxCell>
        <mxCell id="zJoKeCBBQLFJ8sPPTKAs-39" value="&lt;div style=&quot;&quot;&gt;&lt;ul&gt;&lt;li style=&quot;text-align: left;&quot;&gt;generate referral code&lt;/li&gt;&lt;/ul&gt;&lt;/div&gt;" style="text;html=1;strokeColor=none;fillColor=none;align=center;verticalAlign=middle;whiteSpace=wrap;rounded=0;" vertex="1" parent="1">
          <mxGeometry x="700" y="314" width="165" height="30" as="geometry" />
        </mxCell>
        <mxCell id="zJoKeCBBQLFJ8sPPTKAs-40" style="edgeStyle=orthogonalEdgeStyle;rounded=0;orthogonalLoop=1;jettySize=auto;html=1;entryX=0.5;entryY=1;entryDx=0;entryDy=0;endArrow=none;endFill=0;" edge="1" parent="1" target="zJoKeCBBQLFJ8sPPTKAs-9">
          <mxGeometry relative="1" as="geometry">
            <mxPoint x="725" y="330" as="sourcePoint" />
            <mxPoint x="715" y="310" as="targetPoint" />
            <Array as="points">
              <mxPoint x="725" y="330" />
              <mxPoint x="710" y="330" />
            </Array>
          </mxGeometry>
        </mxCell>
        <mxCell id="zJoKeCBBQLFJ8sPPTKAs-41" style="edgeStyle=orthogonalEdgeStyle;rounded=0;orthogonalLoop=1;jettySize=auto;html=1;entryX=0.25;entryY=1;entryDx=0;entryDy=0;endArrow=none;endFill=0;" edge="1" parent="1">
          <mxGeometry relative="1" as="geometry">
            <mxPoint x="120" y="422" as="sourcePoint" />
            <mxPoint x="110" y="410" as="targetPoint" />
          </mxGeometry>
        </mxCell>
        <mxCell id="zJoKeCBBQLFJ8sPPTKAs-43" style="edgeStyle=orthogonalEdgeStyle;rounded=0;orthogonalLoop=1;jettySize=auto;html=1;entryX=0.25;entryY=1;entryDx=0;entryDy=0;endArrow=none;endFill=0;" edge="1" parent="1" target="zJoKeCBBQLFJ8sPPTKAs-23">
          <mxGeometry relative="1" as="geometry">
            <mxPoint x="120" y="436" as="sourcePoint" />
            <mxPoint x="110.63999999999999" y="408.77" as="targetPoint" />
            <Array as="points">
              <mxPoint x="110" y="436" />
            </Array>
          </mxGeometry>
        </mxCell>
        <mxCell id="zJoKeCBBQLFJ8sPPTKAs-44" style="edgeStyle=orthogonalEdgeStyle;rounded=0;orthogonalLoop=1;jettySize=auto;html=1;entryX=0.25;entryY=1;entryDx=0;entryDy=0;endArrow=none;endFill=0;" edge="1" parent="1" target="zJoKeCBBQLFJ8sPPTKAs-23">
          <mxGeometry relative="1" as="geometry">
            <mxPoint x="120" y="451" as="sourcePoint" />
            <mxPoint x="110" y="411" as="targetPoint" />
            <Array as="points">
              <mxPoint x="110" y="451" />
            </Array>
          </mxGeometry>
        </mxCell>
        <mxCell id="zJoKeCBBQLFJ8sPPTKAs-46" style="edgeStyle=orthogonalEdgeStyle;rounded=0;orthogonalLoop=1;jettySize=auto;html=1;exitX=0;exitY=0.5;exitDx=0;exitDy=0;entryX=0.5;entryY=1;entryDx=0;entryDy=0;endArrow=none;endFill=0;" edge="1" parent="1" source="zJoKeCBBQLFJ8sPPTKAs-45" target="zJoKeCBBQLFJ8sPPTKAs-4">
          <mxGeometry relative="1" as="geometry" />
        </mxCell>
        <mxCell id="zJoKeCBBQLFJ8sPPTKAs-45" value="activities" style="rounded=1;whiteSpace=wrap;html=1;" vertex="1" parent="1">
          <mxGeometry x="294" y="344" width="120" height="30" as="geometry" />
        </mxCell>
        <mxCell id="zJoKeCBBQLFJ8sPPTKAs-47" value="&lt;div style=&quot;text-align: left;&quot;&gt;&lt;ul&gt;&lt;li&gt;food tracker item&lt;/li&gt;&lt;li&gt;exercise tracker item&lt;/li&gt;&lt;li&gt;complete wellbeing quiz&lt;/li&gt;&lt;/ul&gt;&lt;/div&gt;" style="text;html=1;strokeColor=none;fillColor=none;align=center;verticalAlign=middle;whiteSpace=wrap;rounded=0;" vertex="1" parent="1">
          <mxGeometry x="89" y="420" width="181" height="30" as="geometry" />
        </mxCell>
        <mxCell id="zJoKeCBBQLFJ8sPPTKAs-48" style="edgeStyle=orthogonalEdgeStyle;rounded=0;orthogonalLoop=1;jettySize=auto;html=1;entryX=0.218;entryY=0.982;entryDx=0;entryDy=0;endArrow=none;endFill=0;entryPerimeter=0;" edge="1" parent="1" target="zJoKeCBBQLFJ8sPPTKAs-45">
          <mxGeometry relative="1" as="geometry">
            <mxPoint x="330.00000000000006" y="386" as="sourcePoint" />
            <mxPoint x="320.00000000000006" y="374" as="targetPoint" />
            <Array as="points">
              <mxPoint x="320" y="386" />
              <mxPoint x="320" y="374" />
            </Array>
          </mxGeometry>
        </mxCell>
        <mxCell id="zJoKeCBBQLFJ8sPPTKAs-49" style="edgeStyle=orthogonalEdgeStyle;rounded=0;orthogonalLoop=1;jettySize=auto;html=1;entryX=0.214;entryY=0.992;entryDx=0;entryDy=0;endArrow=none;endFill=0;entryPerimeter=0;" edge="1" parent="1" target="zJoKeCBBQLFJ8sPPTKAs-45">
          <mxGeometry relative="1" as="geometry">
            <mxPoint x="330.00000000000006" y="401" as="sourcePoint" />
            <mxPoint x="319.99999999999994" y="375" as="targetPoint" />
            <Array as="points">
              <mxPoint x="320" y="401" />
            </Array>
          </mxGeometry>
        </mxCell>
        <mxCell id="zJoKeCBBQLFJ8sPPTKAs-50" value="&lt;div style=&quot;text-align: left;&quot;&gt;&lt;ul&gt;&lt;li&gt;food tracker items&lt;/li&gt;&lt;li&gt;exercise tracker items&lt;/li&gt;&lt;/ul&gt;&lt;/div&gt;" style="text;html=1;strokeColor=none;fillColor=none;align=center;verticalAlign=middle;whiteSpace=wrap;rounded=0;" vertex="1" parent="1">
          <mxGeometry x="298" y="377" width="162" height="30" as="geometry" />
        </mxCell>
        <mxCell id="zJoKeCBBQLFJ8sPPTKAs-56" style="edgeStyle=orthogonalEdgeStyle;rounded=0;orthogonalLoop=1;jettySize=auto;html=1;entryX=0.5;entryY=1;entryDx=0;entryDy=0;endArrow=none;endFill=0;" edge="1" parent="1" source="zJoKeCBBQLFJ8sPPTKAs-55" target="zJoKeCBBQLFJ8sPPTKAs-6">
          <mxGeometry relative="1" as="geometry">
            <Array as="points">
              <mxPoint x="490" y="359" />
            </Array>
          </mxGeometry>
        </mxCell>
        <mxCell id="zJoKeCBBQLFJ8sPPTKAs-55" value="activities" style="rounded=1;whiteSpace=wrap;html=1;" vertex="1" parent="1">
          <mxGeometry x="510" y="344" width="120" height="30" as="geometry" />
        </mxCell>
        <mxCell id="zJoKeCBBQLFJ8sPPTKAs-57" value="&lt;div style=&quot;text-align: left;&quot;&gt;&lt;ul&gt;&lt;li&gt;food tracker items&lt;/li&gt;&lt;li&gt;exercise tracker items&lt;/li&gt;&lt;/ul&gt;&lt;/div&gt;" style="text;html=1;strokeColor=none;fillColor=none;align=center;verticalAlign=middle;whiteSpace=wrap;rounded=0;" vertex="1" parent="1">
          <mxGeometry x="509" y="377" width="161" height="30" as="geometry" />
        </mxCell>
        <mxCell id="zJoKeCBBQLFJ8sPPTKAs-63" style="edgeStyle=orthogonalEdgeStyle;rounded=0;orthogonalLoop=1;jettySize=auto;html=1;entryX=0.25;entryY=1;entryDx=0;entryDy=0;endArrow=none;endFill=0;" edge="1" parent="1">
          <mxGeometry relative="1" as="geometry">
            <mxPoint x="540.3199999999999" y="386.24" as="sourcePoint" />
            <mxPoint x="530.3199999999999" y="374.24" as="targetPoint" />
          </mxGeometry>
        </mxCell>
        <mxCell id="zJoKeCBBQLFJ8sPPTKAs-64" style="edgeStyle=orthogonalEdgeStyle;rounded=0;orthogonalLoop=1;jettySize=auto;html=1;entryX=0.214;entryY=0.992;entryDx=0;entryDy=0;endArrow=none;endFill=0;entryPerimeter=0;" edge="1" parent="1">
          <mxGeometry relative="1" as="geometry">
            <mxPoint x="540.3199999999999" y="401.24" as="sourcePoint" />
            <mxPoint x="530" y="373.9999999999999" as="targetPoint" />
            <Array as="points">
              <mxPoint x="530.3199999999999" y="401.24" />
            </Array>
          </mxGeometry>
        </mxCell>
        <mxCell id="zJoKeCBBQLFJ8sPPTKAs-70" style="edgeStyle=orthogonalEdgeStyle;rounded=0;orthogonalLoop=1;jettySize=auto;html=1;entryX=0.5;entryY=1;entryDx=0;entryDy=0;endArrow=none;endFill=0;exitX=0;exitY=0.5;exitDx=0;exitDy=0;" edge="1" parent="1" source="zJoKeCBBQLFJ8sPPTKAs-65" target="zJoKeCBBQLFJ8sPPTKAs-9">
          <mxGeometry relative="1" as="geometry">
            <Array as="points">
              <mxPoint x="710" y="372" />
            </Array>
          </mxGeometry>
        </mxCell>
        <mxCell id="zJoKeCBBQLFJ8sPPTKAs-65" value="activities" style="rounded=1;whiteSpace=wrap;html=1;" vertex="1" parent="1">
          <mxGeometry x="733" y="359.49" width="120" height="30" as="geometry" />
        </mxCell>
        <mxCell id="zJoKeCBBQLFJ8sPPTKAs-66" style="edgeStyle=orthogonalEdgeStyle;rounded=0;orthogonalLoop=1;jettySize=auto;html=1;entryX=0.25;entryY=1;entryDx=0;entryDy=0;endArrow=none;endFill=0;" edge="1" parent="1">
          <mxGeometry relative="1" as="geometry">
            <mxPoint x="773" y="402.25" as="sourcePoint" />
            <mxPoint x="763" y="390.49" as="targetPoint" />
          </mxGeometry>
        </mxCell>
        <mxCell id="zJoKeCBBQLFJ8sPPTKAs-67" style="edgeStyle=orthogonalEdgeStyle;rounded=0;orthogonalLoop=1;jettySize=auto;html=1;entryX=0.25;entryY=1;entryDx=0;entryDy=0;endArrow=none;endFill=0;" edge="1" parent="1">
          <mxGeometry relative="1" as="geometry">
            <mxPoint x="773" y="416.25" as="sourcePoint" />
            <mxPoint x="763.0000000000001" y="390.49" as="targetPoint" />
            <Array as="points">
              <mxPoint x="763" y="416.49" />
            </Array>
          </mxGeometry>
        </mxCell>
        <mxCell id="zJoKeCBBQLFJ8sPPTKAs-68" style="edgeStyle=orthogonalEdgeStyle;rounded=0;orthogonalLoop=1;jettySize=auto;html=1;entryX=0.25;entryY=1;entryDx=0;entryDy=0;endArrow=none;endFill=0;" edge="1" parent="1">
          <mxGeometry relative="1" as="geometry">
            <mxPoint x="773" y="431" as="sourcePoint" />
            <mxPoint x="763.0000000000001" y="389.49" as="targetPoint" />
            <Array as="points">
              <mxPoint x="763" y="431" />
            </Array>
          </mxGeometry>
        </mxCell>
        <mxCell id="zJoKeCBBQLFJ8sPPTKAs-69" value="&lt;div style=&quot;text-align: left;&quot;&gt;&lt;ul&gt;&lt;li&gt;food tracker&lt;/li&gt;&lt;li&gt;exercise tracker&lt;/li&gt;&lt;li&gt;wellbeing quiz&lt;/li&gt;&lt;/ul&gt;&lt;/div&gt;" style="text;html=1;strokeColor=none;fillColor=none;align=center;verticalAlign=middle;whiteSpace=wrap;rounded=0;" vertex="1" parent="1">
          <mxGeometry x="729" y="400" width="159" height="30" as="geometry" />
        </mxCell>
        <mxCell id="zJoKeCBBQLFJ8sPPTKAs-76" style="edgeStyle=orthogonalEdgeStyle;rounded=0;orthogonalLoop=1;jettySize=auto;html=1;exitX=0;exitY=0.5;exitDx=0;exitDy=0;entryX=0.5;entryY=1;entryDx=0;entryDy=0;endArrow=none;endFill=0;" edge="1" parent="1" source="zJoKeCBBQLFJ8sPPTKAs-75" target="zJoKeCBBQLFJ8sPPTKAs-9">
          <mxGeometry relative="1" as="geometry" />
        </mxCell>
        <mxCell id="zJoKeCBBQLFJ8sPPTKAs-75" value="personal goals" style="rounded=1;whiteSpace=wrap;html=1;" vertex="1" parent="1">
          <mxGeometry x="730" y="460" width="120" height="30" as="geometry" />
        </mxCell>
        <mxCell id="zJoKeCBBQLFJ8sPPTKAs-78" style="edgeStyle=orthogonalEdgeStyle;rounded=0;orthogonalLoop=1;jettySize=auto;html=1;exitX=0;exitY=0.5;exitDx=0;exitDy=0;entryX=0.5;entryY=1;entryDx=0;entryDy=0;endArrow=none;endFill=0;" edge="1" parent="1" source="zJoKeCBBQLFJ8sPPTKAs-77" target="zJoKeCBBQLFJ8sPPTKAs-9">
          <mxGeometry relative="1" as="geometry" />
        </mxCell>
        <mxCell id="zJoKeCBBQLFJ8sPPTKAs-77" value="recommendations" style="rounded=1;whiteSpace=wrap;html=1;" vertex="1" parent="1">
          <mxGeometry x="730" y="520" width="120" height="30" as="geometry" />
        </mxCell>
        <mxCell id="zJoKeCBBQLFJ8sPPTKAs-79" style="edgeStyle=orthogonalEdgeStyle;rounded=0;orthogonalLoop=1;jettySize=auto;html=1;entryX=0.25;entryY=1;entryDx=0;entryDy=0;endArrow=none;endFill=0;exitX=0.003;exitY=0.058;exitDx=0;exitDy=0;exitPerimeter=0;" edge="1" parent="1" source="zJoKeCBBQLFJ8sPPTKAs-80">
          <mxGeometry relative="1" as="geometry">
            <mxPoint x="763" y="570" as="sourcePoint" />
            <mxPoint x="763" y="550" as="targetPoint" />
          </mxGeometry>
        </mxCell>
        <mxCell id="zJoKeCBBQLFJ8sPPTKAs-80" value="&lt;div style=&quot;&quot;&gt;open an activity&lt;/div&gt;&lt;div style=&quot;&quot;&gt;click on info icon&lt;/div&gt;&lt;div style=&quot;&quot;&gt;display recommendations&lt;/div&gt;" style="text;html=1;strokeColor=none;fillColor=none;align=left;verticalAlign=middle;whiteSpace=wrap;rounded=0;" vertex="1" parent="1">
          <mxGeometry x="773" y="560" width="140" height="30" as="geometry" />
        </mxCell>
        <mxCell id="zJoKeCBBQLFJ8sPPTKAs-81" style="edgeStyle=orthogonalEdgeStyle;rounded=0;orthogonalLoop=1;jettySize=auto;html=1;entryX=0.25;entryY=1;entryDx=0;entryDy=0;endArrow=none;endFill=0;exitX=0;exitY=0.5;exitDx=0;exitDy=0;" edge="1" parent="1" source="zJoKeCBBQLFJ8sPPTKAs-80">
          <mxGeometry relative="1" as="geometry">
            <mxPoint x="773" y="580.8699999999999" as="sourcePoint" />
            <mxPoint x="763" y="550" as="targetPoint" />
          </mxGeometry>
        </mxCell>
        <mxCell id="zJoKeCBBQLFJ8sPPTKAs-82" style="edgeStyle=orthogonalEdgeStyle;rounded=0;orthogonalLoop=1;jettySize=auto;html=1;entryX=0.25;entryY=1;entryDx=0;entryDy=0;endArrow=none;endFill=0;" edge="1" parent="1">
          <mxGeometry relative="1" as="geometry">
            <mxPoint x="773" y="590" as="sourcePoint" />
            <mxPoint x="763" y="550" as="targetPoint" />
            <Array as="points">
              <mxPoint x="763" y="590" />
            </Array>
          </mxGeometry>
        </mxCell>
      </root>
    </mxGraphModel>
  </diagram>
</mxfile>
